<?xml version="1.0" encoding="UTF-8" standalone="no"?>
<!DOCTYPE svg PUBLIC "-//W3C//DTD SVG 1.1//EN" "http://www.w3.org/Graphics/SVG/1.1/DTD/svg11.dtd">
<!-- Created with Vectornator (http://vectornator.io/) -->
<svg height="100%" stroke-miterlimit="10" style="fill-rule:nonzero;clip-rule:evenodd;stroke-linecap:round;stroke-linejoin:round;" version="1.1" viewBox="33.8573 72.6003 172.285 94.7994" width="100%" xml:space="preserve" xmlns="http://www.w3.org/2000/svg" xmlns:vectornator="http://vectornator.io" xmlns:xlink="http://www.w3.org/1999/xlink">
<defs/>
<g id="Layer-1" vectornator:layerName="Layer 1">
<path d="M67.49 72.6003C52.7744 72.6003 40.8267 85.1993 40.8267 100.765C40.8267 116.331 52.7744 128.93 67.49 128.93C67.5803 128.93 67.6638 128.932 67.754 128.93L67.754 128.993L92.7804 128.993L115.273 128.993C116.852 128.993 118.255 129.887 119.285 131.303C119.816 132.013 120.258 132.795 120.552 133.739C120.85 134.685 120.975 135.709 120.975 136.799C120.975 138.908 120.342 140.837 119.338 142.232C119.323 142.253 119.3 142.274 119.285 142.295C118.778 142.966 118.153 143.539 117.49 143.918C116.807 144.31 116.062 144.543 115.273 144.543L91.4605 144.543L55.1351 144.543L51.756 148.165L33.8573 167.4L51.756 167.4L55.1351 167.4L64.9028 167.4L115.906 167.4C116.486 167.4 117.026 167.256 117.596 167.212C122.033 166.871 126.189 165.333 129.687 162.716C136.405 157.689 140.827 149.123 140.827 139.36C140.827 133.547 139.29 128.101 136.603 123.622C132.426 116.66 125.482 112.051 117.596 111.444C117.026 111.401 116.485 111.257 115.906 111.257L92.1468 111.257L67.754 111.257C66.1675 111.257 64.7281 110.444 63.6885 109.134C62.6488 107.823 61.9989 106.012 61.9989 104.013C61.9989 102.013 62.6488 100.202 63.6885 98.8918C64.7281 97.5815 66.1675 96.7685 67.754 96.7685L93.7308 96.7685L127.522 96.7685L127.627 96.5812L140.616 72.6003C140.616 72.6003 139.856 72.6003 136.609 72.6003C133.362 72.6003 127.627 72.6003 127.627 72.6003L114.375 72.6003L67.49 72.6003Z" fill="#7639f7" fill-rule="nonzero" opacity="1" stroke="none"/>
<path d="M177.858 72.6003L146.233 72.975L132.745 96.831L141.985 96.831L151.8 96.831L177.858 96.831C177.876 96.8308 177.896 96.831 177.915 96.831C177.961 96.831 177.985 96.892 178.03 96.8935C178.074 96.8926 178.1 96.8311 178.145 96.831C182.089 96.831 185.319 100.121 185.319 104.2C185.319 108.175 182.239 111.345 178.432 111.507C178.332 111.511 178.245 111.569 178.145 111.569C178.081 111.569 178.035 111.508 177.973 111.507C176.031 111.507 169.19 111.507 163.738 111.507C157.54 111.507 155.129 111.507 155.129 111.507L131.769 111.507C135.386 113.317 137.406 115.253 139.559 118.436C141.435 121.208 143.609 125.014 144.508 129.381L153.063 129.305L179.235 166.213L206.143 166.2L180.326 128.93C193.834 127.784 204.547 117.804 204.547 102.327C204.547 85.8938 192.608 72.6004 177.915 72.6003C177.896 72.6003 177.877 72.6003 177.858 72.6003Z" fill="#7639f7" fill-rule="nonzero" opacity="1" stroke="none"/>
</g>
</svg>
